# xmcd CD database file
# Copyright (C) 1997 Ti Kan
#
# Track frame offsets:
#  182
#  22337
#  39237
#  60155
#  79107
#  105797
#  126160
#  145610
#
# Disc length: 2195 seconds
#
# Revision: 1
# Processed by: cddbd v1.4b41PL1 Copyright (c) Steve Scherf et al.
# Submitted via: CDWizzard Release:4.20
#
DISCID=58089108
DTITLE=The Stylistics - Hurry Up This Way Again
DYEAR=1900
DGENRE=
TTITLE0=Driving Me Wild
TTITLE1=And I'll See You No More
TTITLE2=Found A Love You Couldn't Handle
TTITLE3=Maybe It's Love This Time
TTITLE4=Hurry Up This Way Again
TTITLE5=It Started Out
TTITLE6=I Have You, You Have Me
TTITLE7=Is There Something On Your Mind
EXTD=
EXTT0=
EXTT1=
EXTT2=
EXTT3=
EXTT4=
EXTT5=
EXTT6=
EXTT7=
PLAYORDER=
